<svg version="1" xmlns="http://www.w3.org/2000/svg" width="933.333" height="933.333" viewBox="0 0 700.000000 700.000000"><path d="M99 1C72.3 3.5 48.8 14.9 30.4 34.3 15.8 49.6 6.6 67.4 2.3 88.7.6 97 .5 111.1.5 350c0 239.5.1 253 1.8 261.4 4.7 22.9 15.4 42.6 32 58.2 15.3 14.6 33.1 23.8 54.4 28.1 8.3 1.7 22.4 1.8 261.3 1.8 239.5 0 253-.1 261.4-1.8 22.9-4.7 42.6-15.4 58.2-32 14.6-15.3 23.8-33.1 28.1-54.4 1.7-8.3 1.8-22.4 1.8-261.3s-.1-253-1.8-261.3c-8.9-43.7-40.2-75.7-84.2-86l-9-2.1L356 .4C219.3.3 103.7.6 99 1zm209.5 165.5v19h-172l-.3-18c-.1-9.8 0-18.5.2-19.2.4-1.1 17-1.3 86.3-1.1l85.8.3v19zm255.3.3l.2 19.2-86.2-.2-86.3-.3-.3-18c-.1-9.8 0-18.5.2-19.2.4-1.1 17-1.3 86.3-1.1l85.8.3.3 19.3zm.2 73.2v19H136v-38h428v19zm-255 73v19H136v-38h173v19zm255 0v19H391v-18.3c0-10.1.3-18.7.7-19 .3-.4 39.3-.7 86.5-.7H564v19zm-255 74v19H136v-38h173v19zm255 0v19l-86.2-.2-86.3-.3-.3-18.8-.2-18.7h173v19zm-255 73v19H136v-38h173v19zm255 0v19H391v-38h173v19zm-.5 73.5v19h-427l-.3-18c-.1-9.8 0-18.5.2-19.2.4-1.1 40.8-1.3 213.8-1.1l213.3.3v19z"/></svg>